<svg xmlns="http://www.w3.org/2000/svg" fill-rule="evenodd" stroke-linejoin="round" stroke-miterlimit="2" clip-rule="evenodd" viewBox="0 0 28 30"><g fill="#162b52" fill-rule="nonzero"><path d="m21.605 18.232-7.63 4.405-7.63-4.405v-8.81l7.63-4.406 7.63 4.406zM27.951 7.11V5.758L26.78 5.08l-4.003 2.312-6.459-3.73 4.004-2.31L17.979 0l-4.003 2.311L9.972 0 7.63 1.353l4.003 2.31-6.459 3.73L1.171 5.08 0 5.758V7.11l4.003 2.312v7.457L0 14.568v2.705l4.003 2.311v4.623l2.343 1.352v-4.622l6.458 3.728v4.623l1.172.676 1.171-.676v-4.623l6.458-3.728v4.622l2.343-1.352v-4.623l4.003-2.311v-2.705l-4.003 2.31V9.423z"/><path d="M16.108 18.23c-.084 0-.138-.042-.163-.125l-.376-1.229c-.017-.033-.038-.05-.063-.05h-3.083c-.025 0-.046.017-.063.05l-.363 1.229c-.025.083-.08.125-.163.125h-1.592c-.05 0-.088-.015-.113-.044s-.029-.073-.012-.132l2.707-8.472c.025-.083.08-.125.163-.125h1.967c.084 0 .138.042.164.125l2.707 8.472a.14.14 0 0 1 .012.064c0 .075-.046.112-.138.112zm-3.297-2.845c-.008.05.009.075.05.075h2.207c.05 0 .066-.025.05-.075l-1.129-3.723c-.008-.033-.02-.047-.037-.044-.017.005-.03.02-.038.044z"/></g></svg>