<svg xmlns="http://www.w3.org/2000/svg" fill-rule="evenodd" stroke-linejoin="round" stroke-miterlimit="2" clip-rule="evenodd" viewBox="0 0 1694 630"><g fill="#162b52"><path fill-rule="nonzero" d="m453.765 382.905-160.243 92.513-160.242-92.513V197.873l160.242-92.518 160.243 92.518zm133.28-233.577v-28.402l-24.602-14.207-84.081 48.543L342.723 76.95l84.08-48.54L377.598 0l-84.077 48.544L209.444 0 160.24 28.41l84.078 48.54-135.64 78.312-84.077-48.543L0 120.926v28.402l84.079 48.545v156.62l-84.08-48.54v56.816l84.08 48.541v97.088l49.2 28.407v-97.09l135.642 78.315v97.087l24.601 14.198 24.603-14.198V518.03l135.64-78.314v97.089l49.202-28.407V411.31l84.078-48.541v-56.815l-84.078 48.54V197.873z"/><path fill-rule="nonzero" d="M338.296 382.871c-1.754 0-2.895-.878-3.42-2.632l-7.895-25.801c-.36-.705-.802-1.057-1.326-1.057h-64.743c-.524 0-.966.352-1.325 1.057l-7.627 25.801c-.525 1.754-1.666 2.632-3.42 2.632h-33.428c-1.062 0-1.858-.307-2.382-.922s-.61-1.537-.25-2.767l56.847-177.936c.524-1.754 1.666-2.632 3.42-2.632h41.323c1.754 0 2.901.878 3.44 2.632l56.846 177.936c.179.36.27.802.27 1.326 0 1.575-.967 2.363-2.902 2.363zm-69.238-59.748c-.167 1.051.186 1.576 1.057 1.576h46.338c1.05 0 1.402-.525 1.056-1.576l-23.707-78.19c-.167-.692-.428-1-.787-.923-.346.09-.61.398-.788.922z"/><text x="906.045" y="465.612" font-family="'HelveticaNeue-Medium', 'Helvetica Neue', sans-serif" font-size="280" font-weight="500" transform="translate(-237.694 -77.375)">AuditRe</text></g></svg>