<svg clip-rule="evenodd" fill-rule="evenodd" stroke-linejoin="round" stroke-miterlimit="2" viewBox="0 0 28 30" xmlns="http://www.w3.org/2000/svg"><g fill="#162b52" fill-rule="nonzero"><path d="m1018.52 553.102-359.68-207.653-359.68 207.653v415.324l359.68 207.664 359.68-207.664zm299.16 524.288v63.75l-55.22 31.89-188.73-108.96-304.453 175.78 188.723 108.95-110.441 63.77-188.719-108.96-188.723 108.96-110.441-63.77 188.722-108.95-304.457-175.78-188.718 108.96-55.223-31.89v-63.75l188.723-108.964v-351.551l-188.723 108.953v-127.527l188.723-108.957v-217.922l110.437-63.762v217.926l304.461-175.785v-217.922l55.219-31.867 55.223 31.867v217.922l304.457 175.785v-217.926l110.44 63.762v217.922l188.72 108.957v127.527l-188.72-108.953v351.551z" transform="matrix(.0212127 0 0 -.0212127 -.00018 29.96444)"/><path d="m69.33 0c-.913 0-1.507-.457-1.78-1.37l-4.11-13.43c-.187-.367-.417-.55-.69-.55h-33.7c-.273 0-.503.183-.69.55l-3.97 13.43c-.273.913-.867 1.37-1.78 1.37h-17.4c-.553 0-.967-.16-1.24-.48s-.317-.8-.13-1.44l29.59-92.62c.273-.913.867-1.37 1.78-1.37h21.51c.913 0 1.51.457 1.79 1.37l29.59 92.62c.093.187.14.417.14.69 0 .82-.503 1.23-1.51 1.23zm-36.04-31.1c-.087.547.097.82.55.82h24.12c.547 0 .73-.273.55-.82l-12.34-40.7c-.087-.36-.223-.52-.41-.48-.18.047-.317.207-.41.48z" transform="matrix(.0914737 0 0 .0914737 9.76582 18.23004)"/></g></svg>