<svg width="100%" height="100%" viewBox="0 0 1694 630" version="1.1" xmlns="http://www.w3.org/2000/svg" xmlns:xlink="http://www.w3.org/1999/xlink" xml:space="preserve" xmlns:serif="http://www.serif.com/" fill-rule="evenodd" clip-rule="evenodd" stroke-linejoin="round" stroke-miterlimit="2"><g><g><g><path d="M1018.52,553.102L658.84,345.449L299.16,553.102L299.16,968.426L658.84,1176.09L1018.52,968.426L1018.52,553.102ZM1317.68,1077.39L1317.68,1141.14L1262.46,1173.03L1073.73,1064.07L769.277,1239.85L958,1348.8L847.559,1412.57L658.84,1303.61L470.117,1412.57L359.676,1348.8L548.398,1239.85L243.941,1064.07L55.223,1173.03L-0,1141.14L-0,1077.39L188.723,968.426L188.723,616.875L-0,725.828L-0,598.301L188.723,489.344L188.723,271.422L299.16,207.66L299.16,425.586L603.621,249.801L603.621,31.879L658.84,0.012L714.063,31.879L714.063,249.801L1018.52,425.586L1018.52,207.66L1128.96,271.422L1128.96,489.344L1317.68,598.301L1317.68,725.828L1128.96,616.875L1128.96,968.426L1317.68,1077.39Z" fill="rgb(22,43,82)" fill-rule="nonzero" transform="matrix(1,0,0,1,-4.03718,-5.77596) matrix(1,0,0,1,384,0) matrix(0.445514,0,0,-0.445514,-379.963,635.096)"/></g><g><path d="M69.33,0C68.417,0 67.823,-0.457 67.55,-1.37L63.44,-14.8C63.253,-15.167 63.023,-15.35 62.75,-15.35L29.05,-15.35C28.777,-15.35 28.547,-15.167 28.36,-14.8L24.39,-1.37C24.117,-0.457 23.523,-0 22.61,-0L5.21,-0C4.657,-0 4.243,-0.16 3.97,-0.48C3.697,-0.8 3.653,-1.28 3.84,-1.92L33.43,-94.54C33.703,-95.453 34.297,-95.91 35.21,-95.91L56.72,-95.91C57.633,-95.91 58.23,-95.453 58.51,-94.54L88.1,-1.92C88.193,-1.733 88.24,-1.503 88.24,-1.23C88.24,-0.41 87.737,-0 86.73,-0L69.33,0ZM33.29,-31.1C33.203,-30.553 33.387,-30.28 33.84,-30.28L57.96,-30.28C58.507,-30.28 58.69,-30.553 58.51,-31.1L46.17,-71.8C46.083,-72.16 45.947,-72.32 45.76,-72.28C45.58,-72.233 45.443,-72.073 45.35,-71.8L33.29,-31.1Z" fill="rgb(22,43,82)" fill-rule="nonzero" transform="matrix(1,0,0,1,-4.03718,-5.77596) matrix(1,0,0,1,384,0) matrix(1.92115,0,0,1.92115,-174.86,388.647)"/></g><g><text x="906.045" y="465.612" font-family="'HelveticaNeue-Medium', 'Helvetica Neue', sans-serif" font-weight="500" font-size="280px" fill="rgb(22,43,82)" transform="matrix(1,0,0,1,-4.03718,-5.77596) matrix(1,0,0,1,384,0) matrix(1,0,0,1,-617.657,-71.5991)">AuditRe</text></g></g></g></svg>